<?xml version="1.0" encoding="utf-8"?>
<!-- Generator: Adobe Illustrator 28.0.0, SVG Export Plug-In . SVG Version: 6.00 Build 0)  -->
<svg version="1.1" id="Layer_1" xmlns="http://www.w3.org/2000/svg" xmlns:xlink="http://www.w3.org/1999/xlink" x="0px" y="0px"
	 viewBox="0 0 128 128" style="enable-background:new 0 0 128 128;" xml:space="preserve">
<style type="text/css">
	.st0{fill:#231F20;}
	.st1{fill:#E68A00;}
</style>
<g>
	<path class="st1" d="M47.56,52.35c2.36,0,4.19,0.48,5.49,1.45c1.3,0.97,1.95,2.56,1.95,4.76c0,2.22-0.66,3.82-1.97,4.81
		c-1.31,0.99-3.16,1.48-5.56,1.48h-1.32v6.27h-3.69V52.8c0.36-0.08,0.76-0.15,1.21-0.21s0.9-0.1,1.37-0.13
		c0.46-0.03,0.91-0.06,1.35-0.08C46.83,52.36,47.22,52.35,47.56,52.35z M47.98,55.56c-0.22,0-0.52,0-0.91,0.01
		c-0.39,0.01-0.7,0.04-0.92,0.08v6h1.5c1.18,0,2.07-0.23,2.67-0.71c0.6-0.47,0.9-1.27,0.9-2.42c0-1.08-0.29-1.84-0.88-2.29
		S48.96,55.56,47.98,55.56z"/>
	<path class="st1" d="M62.05,56.67c1.16,0,2.12,0.13,2.89,0.4s1.38,0.65,1.85,1.14c0.46,0.49,0.79,1.09,0.99,1.8
		c0.2,0.71,0.3,1.51,0.3,2.39v8.4c-0.54,0.12-1.34,0.26-2.4,0.42c-1.06,0.16-2.25,0.24-3.57,0.24c-0.9,0-1.71-0.08-2.44-0.24
		c-0.73-0.16-1.36-0.42-1.88-0.79c-0.52-0.37-0.92-0.85-1.2-1.44c-0.28-0.59-0.42-1.31-0.42-2.17c0-0.82,0.16-1.51,0.48-2.07
		c0.32-0.56,0.75-1.01,1.29-1.35c0.54-0.34,1.16-0.58,1.86-0.73c0.7-0.15,1.43-0.23,2.19-0.23c0.96,0,1.81,0.08,2.55,0.24v-0.45
		c0-0.7-0.22-1.28-0.66-1.75c-0.44-0.47-1.2-0.71-2.28-0.71c-0.7,0-1.38,0.05-2.02,0.15c-0.65,0.1-1.18,0.22-1.58,0.36l-0.51-2.97
		c0.46-0.16,1.11-0.3,1.95-0.44C60.29,56.73,61.15,56.67,62.05,56.67z M62.38,68.49c0.4,0,0.79,0,1.17-0.01
		c0.38-0.01,0.71-0.03,0.99-0.08v-3.24c-0.24-0.04-0.53-0.07-0.87-0.1s-0.65-0.04-0.93-0.04c-0.38,0-0.75,0.03-1.11,0.08
		c-0.36,0.05-0.68,0.13-0.95,0.25s-0.49,0.29-0.64,0.51c-0.16,0.22-0.24,0.51-0.24,0.87c0,0.64,0.24,1.09,0.72,1.37
		C61,68.35,61.62,68.49,62.38,68.49z"/>
	<path class="st1" d="M75.7,68.34c0.9,0,1.59-0.06,2.07-0.2c0.48-0.13,0.72-0.39,0.72-0.79c0-0.26-0.08-0.48-0.22-0.66
		c-0.15-0.18-0.36-0.33-0.63-0.46s-0.58-0.25-0.93-0.38s-0.71-0.24-1.1-0.36c-0.54-0.16-1.09-0.34-1.65-0.55
		c-0.56-0.21-1.07-0.48-1.53-0.8c-0.46-0.32-0.84-0.72-1.14-1.21c-0.3-0.49-0.45-1.1-0.45-1.84c0-0.6,0.12-1.17,0.35-1.7
		c0.23-0.53,0.59-1,1.08-1.41c0.49-0.41,1.11-0.73,1.88-0.96c0.76-0.23,1.67-0.34,2.73-0.34c0.92,0,1.78,0.07,2.57,0.21
		c0.79,0.14,1.47,0.34,2.05,0.6l-0.57,3.12c-0.34-0.1-0.87-0.27-1.59-0.5s-1.53-0.35-2.43-0.35c-0.94,0-1.58,0.12-1.91,0.35
		s-0.49,0.48-0.49,0.73c0,0.22,0.07,0.42,0.22,0.58c0.15,0.17,0.35,0.33,0.6,0.46c0.25,0.14,0.54,0.28,0.87,0.41
		c0.33,0.13,0.68,0.25,1.06,0.38c0.54,0.18,1.1,0.38,1.68,0.6s1.11,0.49,1.58,0.82c0.47,0.33,0.85,0.75,1.15,1.26
		s0.45,1.14,0.45,1.88c0,0.58-0.11,1.13-0.33,1.65c-0.22,0.52-0.58,0.97-1.09,1.35s-1.18,0.68-2,0.9s-1.83,0.33-3.03,0.33
		c-1.22,0-2.26-0.14-3.12-0.42c-0.86-0.28-1.55-0.53-2.07-0.75l0.57-3.09c0.7,0.28,1.44,0.54,2.23,0.78
		C74.08,68.22,74.88,68.34,75.7,68.34z"/>
	<path class="st1" d="M87.17,60.09h-3.21v-3.06h3.21v-3.54l3.69-0.6v4.14h5.91v3.06h-5.91v5.7c0,0.52,0.05,0.94,0.15,1.26
		c0.1,0.32,0.24,0.57,0.42,0.75c0.18,0.18,0.4,0.3,0.66,0.36c0.26,0.06,0.55,0.09,0.87,0.09c0.34,0,0.65-0.01,0.95-0.03
		c0.29-0.02,0.57-0.05,0.84-0.11c0.27-0.05,0.55-0.12,0.84-0.22c0.29-0.1,0.6-0.23,0.95-0.39l0.51,3.18
		c-0.68,0.28-1.42,0.48-2.21,0.6s-1.56,0.18-2.29,0.18c-0.86,0-1.62-0.07-2.28-0.21s-1.22-0.41-1.68-0.81
		c-0.46-0.4-0.81-0.96-1.05-1.69c-0.24-0.73-0.36-1.69-0.36-2.87V60.09z"/>
	<path class="st1" d="M104.08,56.67c1.16,0,2.12,0.13,2.89,0.4s1.38,0.65,1.85,1.14c0.46,0.49,0.79,1.09,0.99,1.8
		c0.2,0.71,0.3,1.51,0.3,2.39v8.4c-0.54,0.12-1.34,0.26-2.4,0.42c-1.06,0.16-2.25,0.24-3.57,0.24c-0.9,0-1.71-0.08-2.44-0.24
		c-0.73-0.16-1.36-0.42-1.88-0.79c-0.52-0.37-0.92-0.85-1.2-1.44c-0.28-0.59-0.42-1.31-0.42-2.17c0-0.82,0.16-1.51,0.48-2.07
		c0.32-0.56,0.75-1.01,1.29-1.35c0.54-0.34,1.16-0.58,1.86-0.73c0.7-0.15,1.43-0.23,2.19-0.23c0.96,0,1.81,0.08,2.55,0.24v-0.45
		c0-0.7-0.22-1.28-0.66-1.75c-0.44-0.47-1.2-0.71-2.28-0.71c-0.7,0-1.38,0.05-2.03,0.15c-0.65,0.1-1.17,0.22-1.57,0.36l-0.51-2.97
		c0.46-0.16,1.11-0.3,1.95-0.44C102.31,56.73,103.18,56.67,104.08,56.67z M104.42,68.49c0.4,0,0.79,0,1.17-0.01
		c0.38-0.01,0.71-0.03,0.99-0.08v-3.24c-0.24-0.04-0.53-0.07-0.87-0.1c-0.34-0.03-0.65-0.04-0.93-0.04c-0.38,0-0.75,0.03-1.11,0.08
		c-0.36,0.05-0.67,0.13-0.95,0.25c-0.27,0.12-0.49,0.29-0.64,0.51c-0.16,0.22-0.24,0.51-0.24,0.87c0,0.64,0.24,1.09,0.72,1.37
		C103.04,68.35,103.65,68.49,104.42,68.49z"/>
</g>
<g>
	<path class="st1" d="M9.42,73.84c-0.06-1.16,0.03-3.76,1.55-6.56c0.04-0.08,0.09-0.16,0.15-0.22c0.31-0.38,1.29-1.24,0.87,3.1
		c-0.01,0.06-0.01,0.12-0.02,0.17c-0.12,0.71-0.97,5.5-2.1,4.65C9.61,74.78,9.45,74.34,9.42,73.84z"/>
	<path class="st1" d="M30.65,59.23l-17.88,7.22c0,0,0.58,0.36,0.1,3.38l22.33-9.07C35.19,60.76,34.33,59.56,30.65,59.23z"/>
	<path class="st1" d="M11.32,75.26l22.16-8.69c0,0,2.43-2.23,2.14-4.55l-22.68,9.29C12.94,71.31,12.58,73.61,11.32,75.26z"/>
	<path class="st1" d="M10.75,48.78c0,0,2.41-2.14,5.1-0.59l13.44,10.1l-3.32,1.35L10.75,48.78z"/>
	<path class="st1" d="M9.77,49.93c0,0-1.3,3.06,1.04,5.12l9.55,6.89l3.49-1.46L9.77,49.93z"/>
</g>
</svg>
