<?xml version="1.0" encoding="utf-8"?>
<!-- Generator: Adobe Illustrator 28.0.0, SVG Export Plug-In . SVG Version: 6.00 Build 0)  -->
<svg version="1.1" id="Layer_1" xmlns="http://www.w3.org/2000/svg" xmlns:xlink="http://www.w3.org/1999/xlink" x="0px" y="0px"
	 viewBox="0 0 128 128" style="enable-background:new 0 0 128 128;" xml:space="preserve">
<style type="text/css">
	.st0{fill:#231F20;}
	.st1{fill:#E68A00;}
</style>
<g>
	<path class="st0" d="M50.9,75.65c-0.06-1.16,0.03-3.76,1.55-6.56c0.04-0.08,0.09-0.16,0.15-0.22c0.31-0.38,1.29-1.24,0.87,3.1
		c-0.01,0.06-0.01,0.12-0.02,0.17c-0.12,0.71-0.97,5.5-2.1,4.65C51.08,76.59,50.92,76.14,50.9,75.65z"/>
	<path class="st0" d="M72.12,61.03l-17.88,7.22c0,0,0.58,0.36,0.1,3.38l22.33-9.07C76.66,62.56,75.8,61.36,72.12,61.03z"/>
	<path class="st0" d="M52.8,77.06l22.16-8.69c0,0,2.43-2.23,2.14-4.55l-22.68,9.29C54.41,73.11,54.05,75.41,52.8,77.06z"/>
	<path class="st0" d="M52.22,50.58c0,0,2.41-2.14,5.1-0.59l13.44,10.1l-3.32,1.35L52.22,50.58z"/>
	<path class="st0" d="M51.24,51.74c0,0-1.3,3.06,1.04,5.12l9.55,6.89l3.49-1.46L51.24,51.74z"/>
</g>
</svg>
